<svg xmlns="http://www.w3.org/2000/svg" viewBox="0 0 48 48"><defs><style>.a{fill:#999;}</style></defs>
<path d="M24 4.324c6.408 0 7.167.024 9.7.14a13.28 13.28 0 0 1 4.456.826 7.436 7.436 0 0 1 2.76 1.8 7.436 7.436 0 0 1 1.8 2.76 13.28 13.28 0 0 1 .826 4.456c.115 2.531.14 3.29.14 9.7s-.024 7.167-.14 9.7a13.28 13.28 0 0 1-.826 4.456 7.948 7.948 0 0 1-4.555 4.555 13.28 13.28 0 0 1-4.456.826c-2.53.115-3.289.14-9.7.14s-7.168-.024-9.7-.14a13.28 13.28 0 0 1-4.456-.826 7.436 7.436 0 0 1-2.76-1.8 7.436 7.436 0 0 1-1.8-2.76 13.28 13.28 0 0 1-.825-4.457c-.115-2.531-.14-3.29-.14-9.7s.024-7.167.14-9.7a13.28 13.28 0 0 1 .826-4.456 7.436 7.436 0 0 1 1.8-2.76 7.436 7.436 0 0 1 2.76-1.8 13.28 13.28 0 0 1 4.45-.82c2.531-.115 3.29-.14 9.7-.14m0-4.324c-6.518 0-7.335.028-9.9.144a17.615 17.615 0 0 0-5.821 1.116 11.764 11.764 0 0 0-4.251 2.768 11.764 11.764 0 0 0-2.768 4.251 17.615 17.615 0 0 0-1.116 5.821c-.116 2.565-.144 3.382-.144 9.9s.028 7.335.144 9.9a17.616 17.616 0 0 0 1.116 5.821 11.765 11.765 0 0 0 2.768 4.251 11.764 11.764 0 0 0 4.251 2.768 17.615 17.615 0 0 0 5.821 1.116c2.565.116 3.382.144 9.9.144s7.335-.028 9.9-.144a17.616 17.616 0 0 0 5.826-1.116 12.272 12.272 0 0 0 7.019-7.019 17.616 17.616 0 0 0 1.111-5.821c.116-2.565.144-3.382.144-9.9s-.028-7.335-.144-9.9a17.616 17.616 0 0 0-1.116-5.821 11.764 11.764 0 0 0-2.768-4.251 11.764 11.764 0 0 0-4.251-2.768 17.616 17.616 0 0 0-5.821-1.116c-2.565-.116-3.382-.144-9.9-.144zm0 11.676a12.324 12.324 0 1 0 12.324 12.324 12.324 12.324 0 0 0-12.324-12.324zm0 20.324a8 8 0 1 1 8-8 8 8 0 0 1-8 8zm12.811-23.691a2.88 2.88 0 1 0 2.88 2.88 2.88 2.88 0 0 0-2.88-2.88z"></path>
</svg>